<?xml version="1.0" encoding="ISO-8859-1" standalone="yes"?>
<!DOCTYPE svg PUBLIC "-//W3C//DTD SVG 20010904//EN"
  "http://www.w3.org/TR/2001/REC-SVG-20010904/DTD/svg10.dtd">
<svg width="10.0351cm" height="7.4341cm" viewBox="225.5469 2067.75 1422.2969 1053.6484" version="1.0"
    xmlns="http://www.w3.org/2000/svg"
    xmlns:xlink="http://www.w3.org/1999/xlink">
<desc>
  Exported by the ArtWorks SVGExport module.
  Source document: SCSI::Develop.$.Develop.Web.!WebXpress.^.Input.cm.Pages.phone.dtmf.artwork.dtmf_freq
</desc>
<g transform="matrix(1 0 0 -1 0 5189.1484)" stroke-miterlimit="16" fill-rule="evenodd" clip-rule="evenodd" stroke-linejoin="bevel" stroke-linecap="butt">
<rect x="566.9063" y="2692.8047" width="141.7266" height="141.7266" rx="35.0938" fill="#c7ebff"/>
<rect x="744.0625" y="2692.8047" width="141.7266" height="141.7266" rx="35.0938" fill="#c7ebff"/>
<rect x="921.2266" y="2692.8047" width="141.7266" height="141.7266" rx="35.0938" fill="#c7ebff"/>
<rect x="1098.3828" y="2692.8047" width="141.7266" height="141.7266" rx="35.0938" fill="#ffcccc"/>
<rect x="566.9063" y="2515.6406" width="141.7266" height="141.7266" rx="35.0938" fill="#c7ebff"/>
<rect x="744.0625" y="2515.6406" width="141.7266" height="141.7266" rx="35.0938" fill="#c7ebff"/>
<rect x="921.2266" y="2515.6406" width="141.7266" height="141.7266" rx="35.0938" fill="#c7ebff"/>
<rect x="1098.3828" y="2515.6406" width="141.7266" height="141.7266" rx="35.0938" fill="#ffcccc"/>
<rect x="566.9063" y="2338.4844" width="141.7266" height="141.7266" rx="35.0938" fill="#c7ebff"/>
<rect x="744.0625" y="2338.4844" width="141.7266" height="141.7266" rx="35.0938" fill="#c7ebff"/>
<rect x="921.2266" y="2338.4844" width="141.7266" height="141.7266" rx="35.0938" fill="#c7ebff"/>
<rect x="1098.3828" y="2338.4844" width="141.7266" height="141.7266" rx="35.0938" fill="#ffcccc"/>
<rect x="566.9063" y="2161.3203" width="141.7266" height="141.7266" rx="35.0938" fill="#e6e6e6"/>
<rect x="744.0625" y="2161.3203" width="141.7266" height="141.7266" rx="35.0938" fill="#c7ebff"/>
<rect x="921.2266" y="2161.3203" width="141.7266" height="141.7266" rx="35.0938" fill="#e6e6e6"/>
<rect x="1098.3828" y="2161.3203" width="141.7266" height="141.7266" rx="35.0938" fill="#ffcccc"/>
<g>
<path d="M626.6484 2770.7031 C630.7031 2772.3125 634.5547 2774.4141 638.125 2776.9375 L638.125 2739 648.625 2739 648.625 2787.4375 638.8281 2787.4375 C635.1172 2784.6328 630.9844 2782.1875 626.6484 2780.3672 L626.6484 2770.7031 Z" fill="#000000"/>
</g>
<g>
<path d="M797.75 2738 832.0469 2738 832.0469 2745 808.3828 2745 808.25 2745 C815.1094 2752.7656 831.6953 2761.9375 831.6953 2773.9063 831.6953 2783.5 823.5078 2787.4844 815.0391 2787.4844 806.0078 2787.4844 798.0938 2783.0078 798.4453 2773 L809.1563 2773 C809.1563 2776.5625 811.3281 2780.4844 815.25 2780.4844 818.75 2780.4844 821.1953 2777.6172 821.1953 2774.1172 821.1953 2766.8359 802.1563 2752.6953 797.75 2747.8672 L797.75 2738 Z" fill="#000000"/>
</g>
<g>
<path d="M974.5391 2752.2969 C974.6094 2741.7266 981.3984 2737.9453 991.0547 2737.9453 999.1797 2737.9453 1008.1328 2743.3359 1008.1328 2750.9688 1008.1328 2758.5234 1004.5625 2762.375 998.6875 2764.0547 L998.6875 2764.1953 C1004.0078 2765.3125 1008 2769.4453 1008 2776.2344 1008 2784.5 998.4063 2788.4844 991.6172 2788.4844 982.7969 2788.4844 975.5859 2784.4297 975.1641 2774.8359 L985.875 2774.8359 C985.7344 2778.0547 988.5391 2781.4844 991.6875 2781.4844 995.4688 2781.4844 997.5 2778.5469 997.5 2774.8359 997.5 2768.1172 990.7734 2767.5547 985.7344 2767.2734 L985.7344 2760.2734 C991.0547 2760.4844 997.6328 2759.2969 997.6328 2752.5078 997.6328 2748.5156 995.1172 2744.9453 991.1953 2744.9453 987.6953 2744.9453 985.0391 2748.9375 985.1797 2752.2969 L974.5391 2752.2969 Z" fill="#000000"/>
</g>
<g>
<path d="M637.8594 2579.6328 628.7578 2579.6328 637.7188 2595.9453 637.8594 2595.9453 637.8594 2579.6328 Z M654.7266 2571.7969 654.7266 2579.6328 648.0078 2579.6328 648.0078 2610.4375 637.5078 2610.4375 619.7969 2579.6328 619.7969 2571.7969 637.8594 2571.7969 637.8594 2562 648.0078 2562 648.0078 2571.7969 654.7266 2571.7969 Z" fill="#000000"/>
</g>
<g>
<path d="M797.1641 2574.0391 C797.5859 2564.7266 804.9375 2560.9453 813.4063 2560.9453 823.4141 2560.9453 831.1875 2568.5781 831.1875 2577.5391 831.1875 2588.875 824.9531 2594.125 816.2734 2594.125 812.9141 2594.125 809.6953 2593.0781 807.3125 2590.6953 L807.9453 2603.4375 828.3125 2603.4375 828.3125 2610.4375 798.7031 2610.4375 797.5859 2581.875 807.7344 2581.5938 C808.5781 2584.6094 810.75 2587.125 813.9688 2587.125 818.5156 2587.125 820.6875 2582.3672 820.6875 2578.375 820.6875 2574.1094 819.0078 2567.9453 813.6875 2567.9453 810.3281 2567.9453 807.8047 2570.6797 807.5234 2574.0391 L797.1641 2574.0391 Z" fill="#000000"/>
</g>
<g>
<path d="M998.5234 2577.3984 C998.5234 2573.2656 996.7734 2567.9453 991.9453 2567.9453 987.0469 2567.9453 985.3672 2573.4063 985.3672 2577.3984 985.3672 2581.25 987.3984 2586.4297 991.9453 2586.4297 996.9141 2586.4297 998.5234 2581.6641 998.5234 2577.3984 L998.5234 2577.3984 Z M1008.1875 2598.75 C1008.2578 2607.2188 1001.3984 2611.4844 993.4844 2611.4844 976.4766 2611.4844 974.5156 2595.8047 974.5156 2582.0859 974.5156 2568.0156 979.9766 2560.9453 991.3828 2560.9453 997.3359 2560.9453 1002.9375 2563.8125 1005.4531 2566.6875 1007.7656 2569.2734 1009.375 2573.4063 1009.375 2578.4453 1009.375 2587.1953 1003.5 2593.4297 994.4688 2593.4297 990.8984 2593.4297 987.8125 2592.5156 985.3672 2589.8594 985.3672 2594.125 985.9297 2604.4844 992.2266 2604.4844 993.9063 2604.4844 995.2344 2604.0625 996.2188 2603.1563 997.125 2602.25 997.7578 2600.7734 997.8281 2598.75 L1008.1875 2598.75 Z" fill="#000000"/>
</g>
<g>
<path d="M621.5859 2433.4375 621.5859 2425.5938 643.0078 2425.5938 627.6094 2385 637.8984 2385 652.8047 2424.3359 652.8047 2433.4375 621.5859 2433.4375 Z" fill="#000000"/>
</g>
<g>
<path d="M807.4531 2398.5781 C807.4531 2403.2656 810.6797 2406.2031 814.4531 2406.2031 818.7969 2406.2031 821.4531 2402.9844 821.4531 2398.5781 821.4531 2394.1641 818.5156 2390.9453 814.6641 2390.9453 810.0469 2390.9453 807.4531 2394.2344 807.4531 2398.5781 L807.4531 2398.5781 Z M807.4531 2420.9766 C807.4531 2424.8984 810.5391 2427.4844 814.0391 2427.4844 818.5156 2427.4844 821.4531 2424.8984 821.4531 2420.9766 821.4531 2417.0547 818.5156 2414.6094 815.0156 2414.6094 810.5391 2414.6094 807.4531 2417.0547 807.4531 2420.9766 L807.4531 2420.9766 Z M807.0391 2410.5469 C801.6484 2409.0781 796.9531 2404.7344 796.9531 2398.3672 796.9531 2388.5 805.7734 2383.9453 814.5234 2383.9453 823.0625 2383.9453 831.9531 2389.4063 831.9531 2398.3672 831.9531 2404.6641 827.7578 2409.2891 821.6641 2410.6875 L821.6641 2410.8281 821.6641 2410.7578 C826.9141 2411.5234 831.2578 2416.1484 831.2578 2421.75 831.2578 2430.9141 822.2969 2434.4844 814.5234 2434.4844 806.6875 2434.4844 797.6563 2429.7266 797.6563 2421.75 797.6563 2415.5156 801.2266 2412.2266 807.0391 2410.6875 L807.0391 2410.5469 Z" fill="#000000"/>
</g>
<g>
<path d="M975.2344 2396.8984 C975.5156 2386.8125 982.2344 2383.9453 991.1953 2383.9453 1008.1328 2383.9453 1009.1875 2399.9063 1009.1875 2412.9297 1009.1875 2425.1094 1005.125 2434.4844 991.6875 2434.4844 981.9531 2434.4844 974.3984 2427.9063 974.3984 2417.9688 974.3984 2410.2656 980.9063 2403.4063 988.8828 2403.4063 992.9453 2403.4063 995.5391 2404.0391 998.3359 2406.4141 998.6875 2400.8828 998.6875 2390.9453 991.0547 2390.9453 987.9063 2390.9453 986.2969 2393.8125 985.875 2396.8984 L975.2344 2396.8984 Z M985.25 2418.6641 C985.25 2423.1484 987 2427.4844 992.0391 2427.4844 996.5859 2427.4844 998.3359 2423.1484 998.3359 2418.6641 998.3359 2414.1875 996.5859 2410.4063 992.0391 2410.4063 987 2410.4063 985.25 2414.1875 985.25 2418.6641 L985.25 2418.6641 Z" fill="#000000"/>
</g>
<g>
<path d="M820.6875 2231.1484 C820.6875 2229.9531 821.25 2212.9453 814.4531 2212.9453 807.6641 2212.9453 808.2266 2229.9531 808.2266 2231.1484 808.2266 2232.3359 807.6641 2249.4844 814.4531 2249.4844 821.25 2249.4844 820.6875 2232.3359 820.6875 2231.1484 L820.6875 2231.1484 Z M831.5391 2231.1484 C831.5391 2242.9063 827.9688 2256.4844 814.25 2256.4844 800.9453 2256.4844 797.375 2242.9063 797.375 2231.1484 797.375 2219.3828 800.9453 2205.9453 814.25 2205.9453 827.9688 2205.9453 831.5391 2219.3828 831.5391 2231.1484 L831.5391 2231.1484 Z" fill="#000000"/>
</g>
<g>
<path d="M631.1953 2228.5 621.8984 2216.2969 630.8984 2210.8984 636.6953 2225.0938 642.5 2211 651.7969 2216.0938 642.3984 2228.3984 657.2969 2226.0938 657.5 2236.6953 642.1953 2234.8984 652 2246.6953 642.6953 2252.1953 636.7969 2238.0938 631.1953 2251.8984 621.8984 2246.7969 631.2969 2234.8984 616.0938 2237.0938 616.0938 2226.5 631.1953 2228.5 Z" fill="#000000"/>
</g>
<g>
<path d="M986.0625 2255.4375 983.4766 2241.9297 975.5625 2241.9297 975.5625 2234.9297 982.0781 2234.9297 980.4688 2225.6172 972.8359 2225.6172 972.8359 2218.6172 979 2218.6172 976.8281 2207 983.8281 2207 986 2218.6172 992.7891 2218.6172 990.6172 2207 997.6172 2207 999.7891 2218.6172 1007.6953 2218.6172 1007.6953 2225.6172 1001.3984 2225.6172 1003.0078 2234.9297 1009.5156 2234.9297 1009.5156 2241.9297 1004.1953 2241.9297 1006.7891 2255.4375 999.8594 2255.4375 997.2656 2241.9297 990.4766 2241.9297 993.0625 2255.4375 986.0625 2255.4375 Z M989.0781 2234.9297 996.0781 2234.9297 994.3281 2225.6172 987.4688 2225.6172 989.0781 2234.9297 Z" fill="#000000"/>
</g>
<g>
<path d="M1154.2656 2738 1158.0469 2748.7031 1178.0625 2748.7031 1181.7031 2738 1192.625 2738 1175.0547 2788.5391 1162.1797 2788.5391 1143.9063 2738 1154.2656 2738 Z M1160.8438 2757.1094 1168.2656 2778.6641 1168.4063 2778.6641 1175.3359 2757.1094 1160.8438 2757.1094 Z" fill="#000000"/>
</g>
<g>
<path d="M1159.6094 2569.3984 1159.6094 2582.8359 1168.0781 2582.8359 C1173.1875 2582.8359 1176.6875 2581.9297 1176.6875 2576.1172 1176.6875 2570.3047 1173.1875 2569.3984 1168.0781 2569.3984 L1159.6094 2569.3984 Z M1159.6094 2591.2344 1159.6094 2603.1328 1168.0781 2603.1328 C1172.625 2603.1328 1175.1484 2601.25 1175.1484 2597.1875 1175.1484 2593.125 1172.625 2591.2344 1168.0781 2591.2344 L1159.6094 2591.2344 Z M1167.8672 2561 C1175.6328 2560.4375 1188.2344 2564.0781 1188.2344 2574.0859 1188.2344 2581.5078 1183.4766 2585.9141 1177.1094 2587.25 L1177.1094 2587.3828 C1182.1484 2589.0625 1186 2592.9141 1186 2598.4453 1186 2608.3125 1176.7578 2612.0938 1167.7266 2611.5391 L1148.7578 2611.5391 1148.7578 2561 1167.8672 2561 Z" fill="#000000"/>
</g>
<g>
<path d="M1189.7969 2418.1563 C1189.3047 2430.8281 1180.2031 2435.5859 1168.5859 2435.5859 1153.9531 2435.5859 1147.375 2424.0391 1147.375 2409.2656 1147.375 2394.5 1153.9531 2382.9453 1168.5859 2382.9453 1180.2031 2382.9453 1189.3047 2387.7031 1189.7969 2400.375 L1178.25 2400.375 C1178.3125 2395.0547 1175.0938 2390.7891 1168.5859 2390.7891 1160.8828 2390.7891 1158.9297 2402.1953 1158.9297 2409.2656 1158.9297 2416.3359 1160.8828 2427.75 1168.5859 2427.75 1175.0938 2427.75 1178.3125 2423.4766 1178.25 2418.1563 L1189.7969 2418.1563 Z" fill="#000000"/>
</g>
<g>
<path d="M1158.3984 2248.1328 1164 2248.1328 C1176.875 2248.2734 1178.7656 2239.3125 1178.7656 2231.2656 1178.7656 2223.2188 1176.875 2214.2578 1164 2214.3984 L1158.3984 2214.3984 1158.3984 2248.1328 Z M1147.5469 2206 1164.7656 2206 C1180.5156 2205.8594 1190.3125 2213.6953 1190.3125 2231.2656 1190.3125 2248.8359 1180.5156 2256.6797 1164.7656 2256.5391 L1147.5469 2256.5391 1147.5469 2206 Z" fill="#000000"/>
</g>
<g>
<path d="M382.7969 2764.6953 C387.9453 2764.6953 390.0469 2760.3438 390.0469 2755.7969 390.0469 2750.8984 387.2422 2747.2422 382.1484 2747.2422 377.6484 2747.2422 374.3438 2751.1953 374.3438 2755.5469 374.3438 2760.6953 377.2969 2764.6953 382.7969 2764.6953 Z M382.8438 2780.3438 C371.6484 2780.3438 370.2422 2769.3984 370.2422 2760.5469 370.2422 2752.2422 372.9922 2744.25 382.6484 2744.25 389.4453 2744.25 393.5469 2749.3984 393.5469 2755.9922 393.5469 2762.5938 389.7969 2767.4453 382.9453 2767.4453 378.8984 2767.4453 375.3984 2765.5938 373.8438 2761.7969 L373.7422 2761.7969 C373.7422 2768.2969 374.6953 2777.3438 382.9922 2777.3438 386.5469 2777.3438 389.4453 2775.0938 389.5938 2771.4922 L393.0938 2771.4922 C392.9922 2777.4922 388.4922 2780.3438 382.8438 2780.3438 Z" fill="#000000"/>
<path d="M409.3438 2777.3438 C414.0938 2777.3438 417.4922 2773.9922 417.4922 2769.2422 417.4922 2764.4453 413.9453 2761.0469 409.1484 2761.0469 404.5938 2761.0469 401.7422 2764.2422 401.7422 2768.7969 401.7422 2773.5938 404.1953 2777.3438 409.3438 2777.3438 Z M398.3438 2753.4922 C398.7969 2747.9922 402.2969 2744.25 408.4453 2744.25 419.4922 2744.25 421.5938 2753.9453 421.5938 2763.2422 421.5938 2771.8438 419.3438 2780.3438 409.2969 2780.3438 402.5938 2780.3438 398.2422 2775.6484 398.2422 2769.0469 398.2422 2762.8438 402.5938 2758.2969 408.8438 2758.2969 412.8438 2758.2969 416.2969 2760.2422 417.9922 2763.5938 L418.0938 2763.5938 C418.0938 2758.3438 417.2422 2747.2422 409.3438 2747.2422 405.0938 2747.2422 401.9922 2748.9453 401.8438 2753.4922 L398.3438 2753.4922 Z" fill="#000000"/>
<path d="M448.5938 2779.5938 426.5469 2779.5938 426.5469 2776.5938 445.1953 2776.5938 431.3438 2745 435.1484 2745 448.5938 2776.6953 448.5938 2779.5938 Z" fill="#000000"/>
<path d="M473.1953 2745 473.1953 2762.2422 492.8984 2762.2422 492.8984 2745 496.1484 2745 496.1484 2781.0938 492.8984 2781.0938 492.8984 2765.2422 473.1953 2765.2422 473.1953 2781.0938 469.9453 2781.0938 469.9453 2745 473.1953 2745 Z" fill="#000000"/>
<path d="M502.9922 2745 521.1953 2745 521.1953 2747.7422 506.6484 2747.7422 521.1953 2767.3438 521.1953 2770.0938 502.9922 2770.0938 502.9922 2767.3438 517.6484 2767.3438 502.9922 2747.7422 502.9922 2745 Z" fill="#000000"/>
</g>
<g>
<path d="M392.5938 2602.5938 370.5469 2602.5938 370.5469 2599.5938 389.1953 2599.5938 375.3438 2568 379.1484 2568 392.5938 2599.6953 392.5938 2602.5938 Z" fill="#000000"/>
<path d="M420.5938 2602.5938 398.5469 2602.5938 398.5469 2599.5938 417.1953 2599.5938 403.3438 2568 407.1484 2568 420.5938 2599.6953 420.5938 2602.5938 Z" fill="#000000"/>
<path d="M437.8984 2600.3438 C445.2422 2600.3438 445.8984 2590.4453 445.8984 2585.2969 445.8984 2580.1484 445.2422 2570.2422 437.8984 2570.2422 430.5469 2570.2422 429.8984 2580.1484 429.8984 2585.2969 429.8984 2590.4453 430.5469 2600.3438 437.8984 2600.3438 Z M437.8984 2603.3438 C428.4453 2603.3438 426.3984 2594.0938 426.3984 2585.2969 426.3984 2576.4922 428.4453 2567.25 437.8984 2567.25 447.3438 2567.25 449.3984 2576.4922 449.3984 2585.2969 449.3984 2594.0938 447.3438 2603.3438 437.8984 2603.3438 Z" fill="#000000"/>
<path d="M473.1953 2568 473.1953 2585.2422 492.8984 2585.2422 492.8984 2568 496.1484 2568 496.1484 2604.0938 492.8984 2604.0938 492.8984 2588.2422 473.1953 2588.2422 473.1953 2604.0938 469.9453 2604.0938 469.9453 2568 473.1953 2568 Z" fill="#000000"/>
<path d="M502.9922 2568 521.1953 2568 521.1953 2570.7422 506.6484 2570.7422 521.1953 2590.3438 521.1953 2593.0938 502.9922 2593.0938 502.9922 2590.3438 517.6484 2590.3438 502.9922 2570.7422 502.9922 2568 Z" fill="#000000"/>
</g>
<g>
<path d="M381.8984 2393.2422 C377.5938 2393.2422 373.6484 2395.4453 373.6484 2400.3984 373.6484 2405.3438 377.5938 2407.5469 381.8984 2407.5469 386.1953 2407.5469 390.1484 2405.3438 390.1484 2400.3984 390.1484 2395.4453 386.1953 2393.2422 381.8984 2393.2422 Z M381.8984 2423.5938 C385.7422 2423.5938 389.8984 2421.6953 389.8984 2417.0469 389.8984 2412.7422 386.4922 2410.5469 381.8984 2410.5469 377.2969 2410.5469 373.8984 2412.7422 373.8984 2417.0469 373.8984 2421.6953 378.0469 2423.5938 381.8984 2423.5938 Z M377.6953 2408.9453 C373.1953 2407.9922 370.0938 2404.8438 370.1484 2400.3984 370.1484 2393.3984 376.0938 2390.25 381.8984 2390.25 387.6953 2390.25 393.6484 2393.3984 393.6484 2400.3984 393.6484 2404.9922 390.7969 2407.7969 386.1953 2408.9922 L386.1953 2409.0938 386.1953 2409.0469 C390.1484 2409.9453 393.1484 2412.8438 393.1484 2417.0469 393.1484 2423.4453 387.4453 2426.3438 381.8984 2426.3438 376.3438 2426.3438 370.6484 2423.4453 370.6484 2417.0469 370.6484 2412.9453 373.6484 2409.4453 377.6953 2409.0469 L377.6953 2408.9453 Z" fill="#000000"/>
<path d="M399.7969 2405.5469 403.1484 2405.5469 C403.8438 2408.7969 406.8438 2410.7969 410.1484 2410.7969 415.3438 2410.7969 417.8984 2407.3984 417.8984 2402.3984 417.8984 2397.3984 415.3438 2393.2422 409.9453 2393.2422 405.9922 2393.2422 402.7969 2395.3438 402.5938 2399.4922 L399.0938 2399.4922 C399.2969 2392.9453 404.4453 2390.25 410.2969 2390.25 417.1484 2390.25 421.3984 2395.5938 421.3984 2402.2422 421.3984 2408.4453 417.3438 2413.7969 410.8438 2413.7969 407.7422 2413.7969 405.1953 2412.3984 403.2422 2410.1484 L403.1484 2410.2422 403.6953 2422.5938 419.6484 2422.5938 419.6484 2425.5938 400.5938 2425.5938 399.7969 2405.5469 Z" fill="#000000"/>
<path d="M448.2422 2391 448.2422 2393.9922 430.3984 2393.9922 C435.7422 2399.1484 447.7969 2409.2969 447.7969 2417.3984 447.7969 2423.3984 442.9922 2426.3438 437.4453 2426.3438 431.4453 2426.3438 426.8438 2422.5469 426.8438 2416.4453 L430.3438 2416.4453 C430.3438 2420.4922 433.1953 2423.3438 437.3438 2423.3438 441.0938 2423.3438 444.2969 2421.2422 444.2969 2417.1953 444.2969 2410.9922 430.9922 2398.4453 426.4922 2394.3984 L426.4922 2391 448.2422 2391 Z" fill="#000000"/>
<path d="M473.1953 2391 473.1953 2408.2422 492.8984 2408.2422 492.8984 2391 496.1484 2391 496.1484 2427.0938 492.8984 2427.0938 492.8984 2411.2422 473.1953 2411.2422 473.1953 2427.0938 469.9453 2427.0938 469.9453 2391 473.1953 2391 Z" fill="#000000"/>
<path d="M502.9922 2391 521.1953 2391 521.1953 2393.7422 506.6484 2393.7422 521.1953 2413.3438 521.1953 2416.0938 502.9922 2416.0938 502.9922 2413.3438 517.6484 2413.3438 502.9922 2393.7422 502.9922 2391 Z" fill="#000000"/>
</g>
<g>
<path d="M381.3438 2246.3438 C386.0938 2246.3438 389.4922 2242.9922 389.4922 2238.2422 389.4922 2233.4453 385.9453 2230.0469 381.1484 2230.0469 376.5938 2230.0469 373.7422 2233.2422 373.7422 2237.7969 373.7422 2242.5938 376.1953 2246.3438 381.3438 2246.3438 Z M370.3438 2222.4922 C370.7969 2216.9922 374.2969 2213.25 380.4453 2213.25 391.4922 2213.25 393.5938 2222.9453 393.5938 2232.2422 393.5938 2240.8438 391.3438 2249.3438 381.2969 2249.3438 374.5938 2249.3438 370.2422 2244.6484 370.2422 2238.0469 370.2422 2231.8438 374.5938 2227.2969 380.8438 2227.2969 384.8438 2227.2969 388.2969 2229.2422 389.9922 2232.5938 L390.0938 2232.5938 C390.0938 2227.3438 389.2422 2216.2422 381.3438 2216.2422 377.0938 2216.2422 373.9922 2217.9453 373.8438 2222.4922 L370.3438 2222.4922 Z" fill="#000000"/>
<path d="M413.3438 2222.0469 413.3438 2214 416.5938 2214 416.5938 2222.0469 422.1484 2222.0469 422.1484 2225.0469 416.5938 2225.0469 416.5938 2248.5938 412.4922 2248.5938 397.0938 2224.6953 397.0938 2222.0469 413.3438 2222.0469 Z M413.3438 2225.0469 401.0469 2225.0469 413.2422 2244.7969 413.3438 2244.7969 413.3438 2225.0469 Z" fill="#000000"/>
<path d="M429.7969 2239.8984 C432.5938 2241.2422 435.2969 2242.8984 437.5938 2245.0938 L437.5938 2214 440.8438 2214 440.8438 2248.5938 437.7422 2248.5938 C435.4922 2246.3438 432.7422 2244.3438 429.7969 2243.1484 L429.7969 2239.8984 Z" fill="#000000"/>
<path d="M473.1953 2214 473.1953 2231.2422 492.8984 2231.2422 492.8984 2214 496.1484 2214 496.1484 2250.0938 492.8984 2250.0938 492.8984 2234.2422 473.1953 2234.2422 473.1953 2250.0938 469.9453 2250.0938 469.9453 2214 473.1953 2214 Z" fill="#000000"/>
<path d="M502.9922 2214 521.1953 2214 521.1953 2216.7422 506.6484 2216.7422 521.1953 2236.3438 521.1953 2239.0938 502.9922 2239.0938 502.9922 2236.3438 517.6484 2236.3438 502.9922 2216.7422 502.9922 2214 Z" fill="#000000"/>
</g>
<g>
<path d="M585.7969 2965.8984 C588.5938 2967.2422 591.2969 2968.8984 593.5938 2971.0938 L593.5938 2940 596.8438 2940 596.8438 2974.5938 593.7422 2974.5938 C591.4922 2972.3438 588.7422 2970.3438 585.7969 2969.1484 L585.7969 2965.8984 Z" fill="#000000"/>
<path d="M632.2422 2940 632.2422 2942.9922 614.3984 2942.9922 C619.7422 2948.1484 631.7969 2958.2969 631.7969 2966.3984 631.7969 2972.3984 626.9922 2975.3438 621.4453 2975.3438 615.4453 2975.3438 610.8438 2971.5469 610.8438 2965.4453 L614.3438 2965.4453 C614.3438 2969.4922 617.1953 2972.3438 621.3438 2972.3438 625.0938 2972.3438 628.2969 2970.2422 628.2969 2966.1953 628.2969 2959.9922 614.9922 2947.4453 610.4922 2943.3984 L610.4922 2940 632.2422 2940 Z" fill="#000000"/>
<path d="M648.8984 2972.3438 C656.2422 2972.3438 656.8984 2962.4453 656.8984 2957.2969 656.8984 2952.1484 656.2422 2942.2422 648.8984 2942.2422 641.5469 2942.2422 640.8984 2952.1484 640.8984 2957.2969 640.8984 2962.4453 641.5469 2972.3438 648.8984 2972.3438 Z M648.8984 2975.3438 C639.4453 2975.3438 637.3984 2966.0938 637.3984 2957.2969 637.3984 2948.4922 639.4453 2939.25 648.8984 2939.25 658.3438 2939.25 660.3984 2948.4922 660.3984 2957.2969 660.3984 2966.0938 658.3438 2975.3438 648.8984 2975.3438 Z" fill="#000000"/>
<path d="M676.3438 2972.3438 C681.0938 2972.3438 684.4922 2968.9922 684.4922 2964.2422 684.4922 2959.4453 680.9453 2956.0469 676.1484 2956.0469 671.5938 2956.0469 668.7422 2959.2422 668.7422 2963.7969 668.7422 2968.5938 671.1953 2972.3438 676.3438 2972.3438 Z M665.3438 2948.4922 C665.7969 2942.9922 669.2969 2939.25 675.4453 2939.25 686.4922 2939.25 688.5938 2948.9453 688.5938 2958.2422 688.5938 2966.8438 686.3438 2975.3438 676.2969 2975.3438 669.5938 2975.3438 665.2422 2970.6484 665.2422 2964.0469 665.2422 2957.8438 669.5938 2953.2969 675.8438 2953.2969 679.8438 2953.2969 683.2969 2955.2422 684.9922 2958.5938 L685.0938 2958.5938 C685.0938 2953.3438 684.2422 2942.2422 676.3438 2942.2422 672.0938 2942.2422 668.9922 2943.9453 668.8438 2948.4922 L665.3438 2948.4922 Z" fill="#000000"/>
</g>
<g>
<path d="M615.1953 2883 615.1953 2900.2422 634.8984 2900.2422 634.8984 2883 638.1484 2883 638.1484 2919.0938 634.8984 2919.0938 634.8984 2903.2422 615.1953 2903.2422 615.1953 2919.0938 611.9453 2919.0938 611.9453 2883 615.1953 2883 Z" fill="#000000"/>
<path d="M644.9922 2883 663.1953 2883 663.1953 2885.7422 648.6484 2885.7422 663.1953 2905.3438 663.1953 2908.0938 644.9922 2908.0938 644.9922 2905.3438 659.6484 2905.3438 644.9922 2885.7422 644.9922 2883 Z" fill="#000000"/>
</g>
<g>
<path d="M762.7969 2965.8984 C765.5938 2967.2422 768.2969 2968.8984 770.5938 2971.0938 L770.5938 2940 773.8438 2940 773.8438 2974.5938 770.7422 2974.5938 C768.4922 2972.3438 765.7422 2970.3438 762.7969 2969.1484 L762.7969 2965.8984 Z" fill="#000000"/>
<path d="M796.2422 2956.4453 C800.9922 2957.1484 806.3438 2955.1953 806.3438 2949.6484 806.3438 2944.6953 802.5469 2942.2422 797.9453 2942.2422 793.9453 2942.2422 790.1484 2944.8438 790.0938 2949.1484 L786.5938 2949.1484 C786.7969 2942.5469 791.8984 2939.25 797.9922 2939.25 803.7969 2939.25 809.8438 2942.7422 809.8438 2949.2422 809.8438 2953.8984 806.6484 2957.0469 802.2422 2957.9922 L802.2422 2958.0938 C806.0938 2958.8984 809.2969 2961.6953 809.2969 2965.8984 809.2969 2972.5938 803.5469 2975.3438 797.6953 2975.3438 792.2969 2975.3438 787.0938 2971.8984 787.0938 2966.0469 L790.5938 2966.0469 C791.0469 2970.0469 793.7422 2972.3438 798.1484 2972.3438 802.1953 2972.3438 805.7969 2970.0938 805.7969 2966.0938 805.7969 2960.8984 800.6953 2959.0938 796.2422 2959.5938 L796.2422 2956.4453 Z" fill="#000000"/>
<path d="M824.2422 2956.4453 C828.9922 2957.1484 834.3438 2955.1953 834.3438 2949.6484 834.3438 2944.6953 830.5469 2942.2422 825.9453 2942.2422 821.9453 2942.2422 818.1484 2944.8438 818.0938 2949.1484 L814.5938 2949.1484 C814.7969 2942.5469 819.8984 2939.25 825.9922 2939.25 831.7969 2939.25 837.8438 2942.7422 837.8438 2949.2422 837.8438 2953.8984 834.6484 2957.0469 830.2422 2957.9922 L830.2422 2958.0938 C834.0938 2958.8984 837.2969 2961.6953 837.2969 2965.8984 837.2969 2972.5938 831.5469 2975.3438 825.6953 2975.3438 820.2969 2975.3438 815.0938 2971.8984 815.0938 2966.0469 L818.5938 2966.0469 C819.0469 2970.0469 821.7422 2972.3438 826.1484 2972.3438 830.1953 2972.3438 833.7969 2970.0938 833.7969 2966.0938 833.7969 2960.8984 828.6953 2959.0938 824.2422 2959.5938 L824.2422 2956.4453 Z" fill="#000000"/>
<path d="M854.7969 2959.6953 C859.9453 2959.6953 862.0469 2955.3438 862.0469 2950.7969 862.0469 2945.8984 859.2422 2942.2422 854.1484 2942.2422 849.6484 2942.2422 846.3438 2946.1953 846.3438 2950.5469 846.3438 2955.6953 849.2969 2959.6953 854.7969 2959.6953 Z M854.8438 2975.3438 C843.6484 2975.3438 842.2422 2964.3984 842.2422 2955.5469 842.2422 2947.2422 844.9922 2939.25 854.6484 2939.25 861.4453 2939.25 865.5469 2944.3984 865.5469 2950.9922 865.5469 2957.5938 861.7969 2962.4453 854.9453 2962.4453 850.8984 2962.4453 847.3984 2960.5938 845.8438 2956.7969 L845.7422 2956.7969 C845.7422 2963.2969 846.6953 2972.3438 854.9922 2972.3438 858.5469 2972.3438 861.4453 2970.0938 861.5938 2966.4922 L865.0938 2966.4922 C864.9922 2972.4922 860.4922 2975.3438 854.8438 2975.3438 Z" fill="#000000"/>
</g>
<g>
<path d="M792.1953 2883 792.1953 2900.2422 811.8984 2900.2422 811.8984 2883 815.1484 2883 815.1484 2919.0938 811.8984 2919.0938 811.8984 2903.2422 792.1953 2903.2422 792.1953 2919.0938 788.9453 2919.0938 788.9453 2883 792.1953 2883 Z" fill="#000000"/>
<path d="M821.9922 2883 840.1953 2883 840.1953 2885.7422 825.6484 2885.7422 840.1953 2905.3438 840.1953 2908.0938 821.9922 2908.0938 821.9922 2905.3438 836.6484 2905.3438 821.9922 2885.7422 821.9922 2883 Z" fill="#000000"/>
</g>
<g>
<path d="M940.7969 2965.8984 C943.5938 2967.2422 946.2969 2968.8984 948.5938 2971.0938 L948.5938 2940 951.8438 2940 951.8438 2974.5938 948.7422 2974.5938 C946.4922 2972.3438 943.7422 2970.3438 940.7969 2969.1484 L940.7969 2965.8984 Z" fill="#000000"/>
<path d="M979.3438 2948.0469 979.3438 2940 982.5938 2940 982.5938 2948.0469 988.1484 2948.0469 988.1484 2951.0469 982.5938 2951.0469 982.5938 2974.5938 978.4922 2974.5938 963.0938 2950.6953 963.0938 2948.0469 979.3438 2948.0469 Z M979.3438 2951.0469 967.0469 2951.0469 979.2422 2970.7969 979.3438 2970.7969 979.3438 2951.0469 Z" fill="#000000"/>
<path d="M1014.5938 2974.5938 992.5469 2974.5938 992.5469 2971.5938 1011.1953 2971.5938 997.3438 2940 1001.1484 2940 1014.5938 2971.6953 1014.5938 2974.5938 Z" fill="#000000"/>
<path d="M1042.5938 2974.5938 1020.5469 2974.5938 1020.5469 2971.5938 1039.1953 2971.5938 1025.3438 2940 1029.1484 2940 1042.5938 2971.6953 1042.5938 2974.5938 Z" fill="#000000"/>
</g>
<g>
<path d="M969.1953 2883 969.1953 2900.2422 988.8984 2900.2422 988.8984 2883 992.1484 2883 992.1484 2919.0938 988.8984 2919.0938 988.8984 2903.2422 969.1953 2903.2422 969.1953 2919.0938 965.9453 2919.0938 965.9453 2883 969.1953 2883 Z" fill="#000000"/>
<path d="M998.9922 2883 1017.1953 2883 1017.1953 2885.7422 1002.6484 2885.7422 1017.1953 2905.3438 1017.1953 2908.0938 998.9922 2908.0938 998.9922 2905.3438 1013.6484 2905.3438 998.9922 2885.7422 998.9922 2883 Z" fill="#000000"/>
</g>
<g>
<path d="M1117.7969 2965.8984 C1120.5938 2967.2422 1123.2969 2968.8984 1125.5938 2971.0938 L1125.5938 2940 1128.8438 2940 1128.8438 2974.5938 1125.7422 2974.5938 C1123.4922 2972.3438 1120.7422 2970.3438 1117.7969 2969.1484 L1117.7969 2965.8984 Z" fill="#000000"/>
<path d="M1154.7969 2959.6953 C1159.9453 2959.6953 1162.0469 2955.3438 1162.0469 2950.7969 1162.0469 2945.8984 1159.2422 2942.2422 1154.1484 2942.2422 1149.6484 2942.2422 1146.3438 2946.1953 1146.3438 2950.5469 1146.3438 2955.6953 1149.2969 2959.6953 1154.7969 2959.6953 Z M1154.8438 2975.3438 C1143.6484 2975.3438 1142.2422 2964.3984 1142.2422 2955.5469 1142.2422 2947.2422 1144.9922 2939.25 1154.6484 2939.25 1161.4453 2939.25 1165.5469 2944.3984 1165.5469 2950.9922 1165.5469 2957.5938 1161.7969 2962.4453 1154.9453 2962.4453 1150.8984 2962.4453 1147.3984 2960.5938 1145.8438 2956.7969 L1145.7422 2956.7969 C1145.7422 2963.2969 1146.6953 2972.3438 1154.9922 2972.3438 1158.5469 2972.3438 1161.4453 2970.0938 1161.5938 2966.4922 L1165.0938 2966.4922 C1164.9922 2972.4922 1160.4922 2975.3438 1154.8438 2975.3438 Z" fill="#000000"/>
<path d="M1178.2422 2956.4453 C1182.9922 2957.1484 1188.3438 2955.1953 1188.3438 2949.6484 1188.3438 2944.6953 1184.5469 2942.2422 1179.9453 2942.2422 1175.9453 2942.2422 1172.1484 2944.8438 1172.0938 2949.1484 L1168.5938 2949.1484 C1168.7969 2942.5469 1173.8984 2939.25 1179.9922 2939.25 1185.7969 2939.25 1191.8438 2942.7422 1191.8438 2949.2422 1191.8438 2953.8984 1188.6484 2957.0469 1184.2422 2957.9922 L1184.2422 2958.0938 C1188.0938 2958.8984 1191.2969 2961.6953 1191.2969 2965.8984 1191.2969 2972.5938 1185.5469 2975.3438 1179.6953 2975.3438 1174.2969 2975.3438 1169.0938 2971.8984 1169.0938 2966.0469 L1172.5938 2966.0469 C1173.0469 2970.0469 1175.7422 2972.3438 1180.1484 2972.3438 1184.1953 2972.3438 1187.7969 2970.0938 1187.7969 2966.0938 1187.7969 2960.8984 1182.6953 2959.0938 1178.2422 2959.5938 L1178.2422 2956.4453 Z" fill="#000000"/>
<path d="M1206.2422 2956.4453 C1210.9922 2957.1484 1216.3438 2955.1953 1216.3438 2949.6484 1216.3438 2944.6953 1212.5469 2942.2422 1207.9453 2942.2422 1203.9453 2942.2422 1200.1484 2944.8438 1200.0938 2949.1484 L1196.5938 2949.1484 C1196.7969 2942.5469 1201.8984 2939.25 1207.9922 2939.25 1213.7969 2939.25 1219.8438 2942.7422 1219.8438 2949.2422 1219.8438 2953.8984 1216.6484 2957.0469 1212.2422 2957.9922 L1212.2422 2958.0938 C1216.0938 2958.8984 1219.2969 2961.6953 1219.2969 2965.8984 1219.2969 2972.5938 1213.5469 2975.3438 1207.6953 2975.3438 1202.2969 2975.3438 1197.0938 2971.8984 1197.0938 2966.0469 L1200.5938 2966.0469 C1201.0469 2970.0469 1203.7422 2972.3438 1208.1484 2972.3438 1212.1953 2972.3438 1215.7969 2970.0938 1215.7969 2966.0938 1215.7969 2960.8984 1210.6953 2959.0938 1206.2422 2959.5938 L1206.2422 2956.4453 Z" fill="#000000"/>
</g>
<g>
<path d="M1146.1953 2883 1146.1953 2900.2422 1165.8984 2900.2422 1165.8984 2883 1169.1484 2883 1169.1484 2919.0938 1165.8984 2919.0938 1165.8984 2903.2422 1146.1953 2903.2422 1146.1953 2919.0938 1142.9453 2919.0938 1142.9453 2883 1146.1953 2883 Z" fill="#000000"/>
<path d="M1175.9922 2883 1194.1953 2883 1194.1953 2885.7422 1179.6484 2885.7422 1194.1953 2905.3438 1194.1953 2908.0938 1175.9922 2908.0938 1175.9922 2905.3438 1190.6484 2905.3438 1175.9922 2885.7422 1175.9922 2883 Z" fill="#000000"/>
</g>
<path d="M345.4609 2834.5313 301.1719 2834.5313 301.1719 2161.3281 345.4609 2161.3281" stroke="#000000" stroke-width="2.5" stroke-linejoin="miter" fill="none"/>
<path d="M566.9063 3002.8281 566.9063 3047.125 1240.1094 3047.125 1240.1094 3002.8281" stroke="#000000" stroke-width="2.5" stroke-linejoin="miter" fill="none"/>
<path d="M566.9063 3047.125 1240.1094 3047.125" stroke="#000000" stroke-width="10" stroke-linejoin="miter" fill="none"/>
<path d="M301.1719 2834.5313 301.1719 2161.3281" stroke="#000000" stroke-width="10" stroke-linejoin="miter" fill="none"/>
<g>
<path d="M243.7969 2205.3984 230.8984 2205.3984 230.8984 2212.6953 C230.8984 2216.1484 230.3984 2222.6484 237.3438 2222.6484 243.5 2222.6484 243.7969 2216.9453 243.7969 2212.3438 L243.7969 2205.3984 Z M246.7969 2205.3984 246.7969 2214.3438 C246.7969 2220.8984 248.25 2221.3984 256.5 2222.1484 259.0469 2222.3438 261.5938 2222.5469 264 2223.3984 L264 2227.1484 C261.7969 2225.6953 259.0938 2225.8984 253.25 2225.2422 249.0469 2224.7969 245.9453 2223.7969 245.1953 2219.1953 L245.0938 2219.1953 C244.0469 2223.3984 241.25 2226.1484 237.3438 2226.1484 233.8984 2226.1484 231.2969 2224.9453 229.7969 2222.4453 228.0938 2219.6953 227.8984 2217.0938 227.8984 2213.9453 L227.8984 2202.1484 264 2202.1484 264 2205.3984 246.7969 2205.3984 Z" fill="#000000"/>
<path d="M251.4453 2253.3438 C256.0938 2253.3438 262 2250.9453 262 2244.8984 262 2238.8438 256.0938 2236.4453 251.4453 2236.4453 246.7969 2236.4453 240.8984 2238.8438 240.8984 2244.8984 240.8984 2250.9453 246.7969 2253.3438 251.4453 2253.3438 L251.4453 2253.3438 Z M238.1484 2244.8984 C238.1484 2236.8984 244.8438 2233.1953 251.4453 2233.1953 258.0469 2233.1953 264.7422 2236.8984 264.7422 2244.8984 264.7422 2252.8984 258.0469 2256.5938 251.4453 2256.5938 244.8438 2256.5938 238.1484 2252.8984 238.1484 2244.8984 L238.1484 2244.8984 Z" fill="#000000"/>
<path d="M238.8984 2262.0938 238.8984 2258.7969 264 2267.9922 264 2271.0469 242.3438 2278.8984 242.3438 2278.9922 264 2286.6953 264 2289.5469 238.8984 2298.8984 238.8984 2295.5938 259.8438 2288.3438 259.8438 2288.2422 238.8984 2280.8438 238.8984 2277.2969 260.0469 2269.6953 260.0469 2269.5938 238.8984 2262.0938 Z" fill="#000000"/>
<path d="M238.8984 2304.9453 243.1953 2304.9453 243.1953 2308.9453 238.8984 2308.9453 238.8984 2304.9453 Z M259.6953 2304.9453 264 2304.9453 264 2308.9453 259.6953 2308.9453 259.6953 2304.9453 Z" fill="#000000"/>
<path d="M227.8984 2335.0469 227.8984 2332.0469 264 2332.0469 264 2335.0469 227.8984 2335.0469 Z" fill="#000000"/>
<path d="M251.4453 2361.3438 C256.0938 2361.3438 262 2358.9453 262 2352.8984 262 2346.8438 256.0938 2344.4453 251.4453 2344.4453 246.7969 2344.4453 240.8984 2346.8438 240.8984 2352.8984 240.8984 2358.9453 246.7969 2361.3438 251.4453 2361.3438 L251.4453 2361.3438 Z M238.1484 2352.8984 C238.1484 2344.8984 244.8438 2341.1953 251.4453 2341.1953 258.0469 2341.1953 264.7422 2344.8984 264.7422 2352.8984 264.7422 2360.8984 258.0469 2364.5938 251.4453 2364.5938 244.8438 2364.5938 238.1484 2360.8984 238.1484 2352.8984 L238.1484 2352.8984 Z" fill="#000000"/>
<path d="M238.8984 2371.0938 238.8984 2367.7969 264 2376.9922 264 2380.0469 242.3438 2387.8984 242.3438 2387.9922 264 2395.6953 264 2398.5469 238.8984 2407.8984 238.8984 2404.5938 259.8438 2397.3438 259.8438 2397.2422 238.8984 2389.8438 238.8984 2386.2969 260.0469 2378.6953 260.0469 2378.5938 238.8984 2371.0938 Z" fill="#000000"/>
<path d="M252.1484 2408.6484 252.1484 2421.2422 249.1484 2421.2422 249.1484 2408.6484 252.1484 2408.6484 Z" fill="#000000"/>
<path d="M264 2431.1484 241.6484 2431.1484 241.6484 2436.8438 238.8984 2436.8438 238.8984 2431.1484 235.6953 2431.1484 C232.0938 2430.9922 230.0469 2431.0938 230.0469 2435.1953 230.0469 2435.7969 230.1484 2436.4453 230.25 2437.0469 L227.8438 2437.0469 C227.6484 2436.1484 227.2969 2435.1484 227.2969 2434.1953 227.2969 2429.8984 229.25 2428.1484 233.5469 2428.1484 L238.8984 2428.1484 238.8984 2423.0938 241.6484 2423.0938 241.6484 2428.1484 264 2428.1484 264 2431.1484 Z" fill="#000000"/>
<path d="M248.8984 2445.9922 C244.0938 2446.0938 240.8984 2448.4453 240.8984 2452.8984 240.8984 2453.4922 241.0469 2454.1484 241.0938 2454.7422 L238.1953 2454.7422 C238.1484 2453.7422 238.0938 2452.7422 238.1484 2451.7422 238.25 2449.2422 240.0469 2446.9922 242.5938 2446.0938 L242.5938 2445.9922 238.8984 2445.8438 238.8984 2442.7422 C240.5938 2442.8438 242.5938 2443.0469 244.5469 2442.9922 L264 2442.9922 264 2445.9922 248.8984 2445.9922 Z" fill="#000000"/>
<path d="M252.1484 2480.1484 C244.2969 2480.1484 238.1484 2477.0938 238.1484 2468.6953 238.1484 2461.2422 244.6484 2457.4922 251.4453 2457.4922 258.2969 2457.4922 264.7422 2460.9922 264.7422 2468.4922 264.7422 2474.5469 262 2478.2969 256 2479.8438 L256 2476.6953 C259.4453 2475.9453 262 2472.9922 262 2469.4453 262 2463.2969 257.5 2460.8438 252.1484 2460.7422 L252.1484 2480.1484 Z M249.3984 2460.8438 C245 2461.2422 240.8984 2463.8438 240.8984 2468.7422 240.8984 2473.9453 244.5469 2476.5469 249.3984 2476.8984 L249.3984 2460.8438 Z" fill="#000000"/>
<path d="M250.8438 2504.2969 C256.5469 2504.2969 262 2502.2969 262 2495.7422 262 2489.9922 255.6484 2488.5469 251 2488.5469 246.1953 2488.5469 240.8984 2490.4922 240.8984 2496.1953 240.8984 2502.0469 245.75 2504.2969 250.8438 2504.2969 L250.8438 2504.2969 Z M242.5938 2504.2969 242.75 2504.2969 242.75 2504.1953 242.5938 2504.1953 C239.75 2502.4453 238.1484 2498.9453 238.1484 2495.5938 238.1484 2488.1484 244.8438 2485.2969 251.3438 2485.2969 257.6484 2485.2969 264.7422 2488.1484 264.7422 2495.4453 264.7422 2499.0938 263.0938 2502.1484 260.0938 2504.1953 L260.0938 2504.2969 273.5469 2504.2969 273.5469 2507.2969 244.5469 2507.2969 C242.5938 2507.2969 240.5938 2507.4453 238.8984 2507.5469 L238.8984 2504.4453 242.5938 2504.2969 Z" fill="#000000"/>
<path d="M253.3438 2531.7969 C257.8438 2531.7969 262 2529.5469 262 2524.5938 262 2520.4922 259.4453 2517.9922 255.0938 2517.9922 L238.8984 2517.9922 238.8984 2514.9922 254.5938 2514.9922 C257.5 2514.9922 264.7422 2515.6484 264.7422 2523.8438 264.7422 2527.0938 263.2969 2529.9453 260.1953 2531.6953 L260.2969 2531.7969 264 2531.9453 264 2535.0469 C262.2969 2534.9453 260.2969 2534.7969 258.3438 2534.7969 L238.8984 2534.7969 238.8984 2531.7969 253.3438 2531.7969 Z" fill="#000000"/>
<path d="M252.1484 2564.1484 C244.2969 2564.1484 238.1484 2561.0938 238.1484 2552.6953 238.1484 2545.2422 244.6484 2541.4922 251.4453 2541.4922 258.2969 2541.4922 264.7422 2544.9922 264.7422 2552.4922 264.7422 2558.5469 262 2562.2969 256 2563.8438 L256 2560.6953 C259.4453 2559.9453 262 2556.9922 262 2553.4453 262 2547.2969 257.5 2544.8438 252.1484 2544.7422 L252.1484 2564.1484 Z M249.3984 2544.8438 C245 2545.2422 240.8984 2547.8438 240.8984 2552.7422 240.8984 2557.9453 244.5469 2560.5469 249.3984 2560.8984 L249.3984 2544.8438 Z" fill="#000000"/>
<path d="M249.5469 2573.9922 C245.0469 2573.9922 240.8984 2576.2422 240.8984 2581.1953 240.8984 2585.2969 243.4453 2587.7969 247.7969 2587.7969 L264 2587.7969 264 2590.7969 248.2969 2590.7969 C245.3984 2590.7969 238.1484 2590.1484 238.1484 2581.9453 238.1484 2578.6953 239.5938 2575.8438 242.6953 2574.0938 L242.5938 2573.9922 238.8984 2573.8438 238.8984 2570.7422 C240.5938 2570.8438 242.5938 2570.9922 244.5469 2570.9922 L264 2570.9922 264 2573.9922 249.5469 2573.9922 Z" fill="#000000"/>
<path d="M246.5938 2617.0938 C241.25 2616.8438 238.1484 2612.6484 238.1484 2607.4922 238.1484 2600.0469 244.6484 2596.2969 251.4453 2596.2969 258.2969 2596.2969 264.7422 2599.7969 264.7422 2607.2969 264.7422 2612.9922 261.8984 2616.2969 256.1484 2617.0938 L256.1484 2613.8438 C259.5938 2613.5938 262 2610.8984 262 2606.9922 262 2602.3984 257.1484 2599.5469 251.3984 2599.5469 245.6953 2599.5469 240.8984 2602.3984 240.8984 2606.9922 240.8984 2611.1484 242.75 2613.5938 246.5938 2613.8438 L246.5938 2617.0938 Z" fill="#000000"/>
<path d="M238.8984 2619.3984 264 2629.7969 273.5938 2625.9922 273.5938 2629.2969 238.8984 2643.1484 238.8984 2639.8984 259.8984 2631.4922 238.8984 2623.0469 238.8984 2619.3984 Z" fill="#000000"/>
<path d="M250.8984 2679.2969 C255.7969 2679.2969 261.1484 2677.0938 261.1484 2671.3438 261.1484 2665.8438 255.5938 2663.4922 251 2663.4922 246.3984 2663.4922 240.8984 2665.7969 240.8984 2671.2422 240.8984 2676.6484 246.0938 2679.2969 250.8984 2679.2969 L250.8984 2679.2969 Z M242.5938 2679.2969 242.7969 2679.1953 C239.8984 2677.1953 238.1484 2674.5938 238.1484 2670.9453 238.1484 2663.2969 244.4453 2660.2422 251.25 2660.2422 258.1484 2660.2422 263.8984 2663.4922 263.8984 2671.0469 263.8984 2674.2969 262.1484 2677.7422 259.1953 2679.1953 L259.1953 2679.2969 263.8984 2679.2969 C268.0938 2679.1953 270.8438 2675.5938 270.8438 2671.6953 270.8438 2668.4922 269.8438 2664.9453 266.8438 2664.5938 L266.8438 2661.3438 C272.0469 2661.3438 273.5938 2666.7422 273.5938 2671.2969 273.5938 2673.6484 273.3984 2674.9922 272.4453 2676.9922 269.8438 2682.5469 264.5938 2682.2969 259.5938 2682.2969 L244.5469 2682.2969 C242.5938 2682.2969 240.5938 2682.4453 238.8984 2682.5469 L238.8984 2679.4453 242.5938 2679.2969 Z" fill="#000000"/>
<path d="M248.8984 2692.9922 C244.0938 2693.0938 240.8984 2695.4453 240.8984 2699.8984 240.8984 2700.4922 241.0469 2701.1484 241.0938 2701.7422 L238.1953 2701.7422 C238.1484 2700.7422 238.0938 2699.7422 238.1484 2698.7422 238.25 2696.2422 240.0469 2693.9922 242.5938 2693.0938 L242.5938 2692.9922 238.8984 2692.8438 238.8984 2689.7422 C240.5938 2689.8438 242.5938 2690.0469 244.5469 2689.9922 L264 2689.9922 264 2692.9922 248.8984 2692.9922 Z" fill="#000000"/>
<path d="M251.4453 2725.3438 C256.0938 2725.3438 262 2722.9453 262 2716.8984 262 2710.8438 256.0938 2708.4453 251.4453 2708.4453 246.7969 2708.4453 240.8984 2710.8438 240.8984 2716.8984 240.8984 2722.9453 246.7969 2725.3438 251.4453 2725.3438 L251.4453 2725.3438 Z M238.1484 2716.8984 C238.1484 2708.8984 244.8438 2705.1953 251.4453 2705.1953 258.0469 2705.1953 264.7422 2708.8984 264.7422 2716.8984 264.7422 2724.8984 258.0469 2728.5938 251.4453 2728.5938 244.8438 2728.5938 238.1484 2724.8984 238.1484 2716.8984 L238.1484 2716.8984 Z" fill="#000000"/>
<path d="M253.3438 2751.7969 C257.8438 2751.7969 262 2749.5469 262 2744.5938 262 2740.4922 259.4453 2737.9922 255.0938 2737.9922 L238.8984 2737.9922 238.8984 2734.9922 254.5938 2734.9922 C257.5 2734.9922 264.7422 2735.6484 264.7422 2743.8438 264.7422 2747.0938 263.2969 2749.9453 260.1953 2751.6953 L260.2969 2751.7969 264 2751.9453 264 2755.0469 C262.2969 2754.9453 260.2969 2754.7969 258.3438 2754.7969 L238.8984 2754.7969 238.8984 2751.7969 253.3438 2751.7969 Z" fill="#000000"/>
<path d="M250.8438 2764.4922 C245.75 2764.4922 240.8984 2766.7422 240.8984 2772.5938 240.8984 2778.2969 246.1953 2780.2422 251 2780.2422 255.6484 2780.2422 262 2778.7969 262 2773.0469 262 2766.4922 256.5469 2764.4922 250.8438 2764.4922 L250.8438 2764.4922 Z M260.0938 2764.4922 260.0938 2764.5938 C263.0938 2766.6484 264.7422 2769.6953 264.7422 2773.3438 264.7422 2780.6484 257.6484 2783.4922 251.3438 2783.4922 244.8438 2783.4922 238.1484 2780.6484 238.1484 2773.1953 238.1484 2769.8438 239.75 2766.3438 242.6953 2764.5938 L242.5938 2764.4922 238.8984 2764.3438 238.8984 2761.2422 C240.5938 2761.3438 242.5938 2761.5469 244.5469 2761.4922 L273.5938 2761.4922 273.5938 2764.4922 260.0938 2764.4922 Z" fill="#000000"/>
</g>
<g>
<path d="M596.5938 3109.6484 C596.0938 3116.1484 590.4922 3118.8438 584.5938 3118.8438 573.6953 3118.8438 569.0469 3109.9453 569.0469 3100.0469 569.0469 3090.0469 573.6484 3081.25 584.5938 3081.25 590.3984 3081.25 595.9453 3084.6953 596.9922 3090.7422 L593.4922 3090.7422 C592.5938 3086.2422 588.5938 3084.2422 584.5938 3084.2422 575.3438 3084.2422 572.5469 3092.6484 572.5469 3100.0469 572.5469 3107.4453 575.3438 3115.8438 584.5938 3115.8438 588.6953 3115.8438 592.4922 3114.0469 593.0938 3109.6484 L596.5938 3109.6484 Z" fill="#000000"/>
<path d="M621.3438 3094.5469 C621.3438 3089.8984 618.9453 3083.9922 612.8984 3083.9922 606.8438 3083.9922 604.4453 3089.8984 604.4453 3094.5469 604.4453 3099.1953 606.8438 3105.0938 612.8984 3105.0938 618.9453 3105.0938 621.3438 3099.1953 621.3438 3094.5469 L621.3438 3094.5469 Z M612.8984 3107.8438 C604.8984 3107.8438 601.1953 3101.1484 601.1953 3094.5469 601.1953 3087.9453 604.8984 3081.25 612.8984 3081.25 620.8984 3081.25 624.5938 3087.9453 624.5938 3094.5469 624.5938 3101.1484 620.8984 3107.8438 612.8984 3107.8438 L612.8984 3107.8438 Z" fill="#000000"/>
<path d="M634.0469 3118.0938 631.0469 3118.0938 631.0469 3082 634.0469 3082 634.0469 3118.0938 Z" fill="#000000"/>
<path d="M658.7969 3092.6484 C658.7969 3088.1484 656.5469 3083.9922 651.5938 3083.9922 647.4922 3083.9922 644.9922 3086.5469 644.9922 3090.8984 L644.9922 3107.0938 641.9922 3107.0938 641.9922 3091.3984 C641.9922 3088.4922 642.6484 3081.25 650.8438 3081.25 654.0938 3081.25 656.9453 3082.6953 658.6953 3085.7969 L658.7969 3085.6953 658.9453 3082 662.0469 3082 C661.9453 3083.6953 661.7969 3085.6953 661.7969 3087.6484 L661.7969 3107.0938 658.7969 3107.0938 658.7969 3092.6484 Z" fill="#000000"/>
<path d="M672.7969 3107.0938 669.6953 3107.0938 C669.7969 3105.3984 669.9453 3103.3984 669.9453 3101.4453 L669.9453 3082 672.9453 3082 672.9453 3096.4453 C672.9453 3100.9453 675.1953 3105.0938 680.1484 3105.0938 684.2422 3105.0938 686.7422 3102.5469 686.7422 3098.1953 L686.7422 3082 689.7422 3082 689.7422 3096.4453 C689.7422 3100.9453 691.9922 3105.0938 696.9453 3105.0938 701.0469 3105.0938 703.5469 3102.5469 703.5469 3098.1953 L703.5469 3082 706.5469 3082 706.5469 3097.6953 C706.5469 3100.5938 705.8984 3107.8438 697.6953 3107.8438 693.7969 3107.8438 690.8984 3105.2969 689.0469 3102.3438 687.9453 3105.6484 684.8438 3107.8438 680.8984 3107.8438 677.6484 3107.8438 674.7969 3106.3984 673.0469 3103.2969 L672.9453 3103.3984 672.7969 3107.0938 Z" fill="#000000"/>
<path d="M716.9922 3096.4453 C716.9922 3100.9453 719.2422 3105.0938 724.1953 3105.0938 728.2969 3105.0938 730.7969 3102.5469 730.7969 3098.1953 L730.7969 3082 733.7969 3082 733.7969 3097.6953 C733.7969 3100.5938 733.1484 3107.8438 724.9453 3107.8438 721.6953 3107.8438 718.8438 3106.3984 717.0938 3103.2969 L716.9922 3103.3984 716.8438 3107.0938 713.7422 3107.0938 C713.8438 3105.3984 713.9922 3103.3984 713.9922 3101.4453 L713.9922 3082 716.9922 3082 716.9922 3096.4453 Z" fill="#000000"/>
<path d="M742.9453 3107.0938 742.9453 3102.7969 746.9453 3102.7969 746.9453 3107.0938 742.9453 3107.0938 Z M742.9453 3086.2969 742.9453 3082 746.9453 3082 746.9453 3086.2969 742.9453 3086.2969 Z" fill="#000000"/>
<path d="M772.9922 3118.0938 769.9922 3118.0938 769.9922 3082 772.9922 3082 772.9922 3096.4453 C772.9922 3100.9453 775.2422 3105.0938 780.1953 3105.0938 784.2969 3105.0938 786.7969 3102.5469 786.7969 3098.1953 L786.7969 3082 789.7969 3082 789.7969 3097.6953 C789.7969 3100.5938 789.1484 3107.8438 780.9453 3107.8438 777.6953 3107.8438 774.8438 3106.3984 773.0938 3103.2969 L772.9922 3103.2969 772.9922 3118.0938 Z" fill="#000000"/>
<path d="M797.0469 3107.0938 797.0469 3082 800.0469 3082 800.0469 3107.0938 797.0469 3107.0938 Z M800.2969 3118.0938 796.7969 3118.0938 796.7969 3114.3438 800.2969 3114.3438 800.2969 3118.0938 Z" fill="#000000"/>
<path d="M826.2969 3095.0938 C826.2969 3090.1953 824.0938 3084.8438 818.3438 3084.8438 812.8438 3084.8438 810.4922 3090.3984 810.4922 3094.9922 810.4922 3099.5938 812.7969 3105.0938 818.2422 3105.0938 823.6484 3105.0938 826.2969 3099.8984 826.2969 3095.0938 L826.2969 3095.0938 Z M826.2969 3103.3984 826.1953 3103.1953 C824.1953 3106.0938 821.5938 3107.8438 817.9453 3107.8438 810.2969 3107.8438 807.2422 3101.5469 807.2422 3094.7422 807.2422 3087.8438 810.4922 3082.0938 818.0469 3082.0938 821.2969 3082.0938 824.7422 3083.8438 826.1953 3086.7969 L826.2969 3086.7969 826.2969 3082.0938 C826.1953 3077.8984 822.5938 3075.1484 818.6953 3075.1484 815.4922 3075.1484 811.9453 3076.1484 811.5938 3079.1484 L808.3438 3079.1484 C808.3438 3073.9453 813.7422 3072.3984 818.2969 3072.3984 820.6484 3072.3984 821.9922 3072.5938 823.9922 3073.5469 829.5469 3076.1484 829.2969 3081.3984 829.2969 3086.3984 L829.2969 3101.4453 C829.2969 3103.3984 829.4453 3105.3984 829.5469 3107.0938 L826.4453 3107.0938 826.2969 3103.3984 Z" fill="#000000"/>
<path d="M838.9922 3118.0938 835.9922 3118.0938 835.9922 3082 838.9922 3082 838.9922 3096.4453 C838.9922 3100.9453 841.2422 3105.0938 846.1953 3105.0938 850.2969 3105.0938 852.7969 3102.5469 852.7969 3098.1953 L852.7969 3082 855.7969 3082 855.7969 3097.6953 C855.7969 3100.5938 855.1484 3107.8438 846.9453 3107.8438 843.6953 3107.8438 840.8438 3106.3984 839.0938 3103.2969 L838.9922 3103.2969 838.9922 3118.0938 Z" fill="#000000"/>
<path d="M883.1484 3082 883.1484 3104.3438 888.8438 3104.3438 888.8438 3107.0938 883.1484 3107.0938 883.1484 3110.2969 C882.9922 3113.8984 883.0938 3115.9453 887.1953 3115.9453 887.7969 3115.9453 888.4453 3115.8438 889.0469 3115.7422 L889.0469 3118.1484 C888.1484 3118.3438 887.1484 3118.6953 886.1953 3118.6953 881.8984 3118.6953 880.1484 3116.7422 880.1484 3112.4453 L880.1484 3107.0938 875.0938 3107.0938 875.0938 3104.3438 880.1484 3104.3438 880.1484 3082 883.1484 3082 Z" fill="#000000"/>
<path d="M897.9922 3097.0938 C898.0938 3101.8984 900.4453 3105.0938 904.8984 3105.0938 905.4922 3105.0938 906.1484 3104.9453 906.7422 3104.8984 L906.7422 3107.7969 C905.7422 3107.8438 904.7422 3107.8984 903.7422 3107.8438 901.2422 3107.7422 898.9922 3105.9453 898.0938 3103.3984 L897.9922 3103.3984 897.8438 3107.0938 894.7422 3107.0938 C894.8438 3105.3984 895.0469 3103.3984 894.9922 3101.4453 L894.9922 3082 897.9922 3082 897.9922 3097.0938 Z" fill="#000000"/>
<path d="M932.1484 3093.8438 C932.1484 3101.6953 929.0938 3107.8438 920.6953 3107.8438 913.2422 3107.8438 909.4922 3101.3438 909.4922 3094.5469 909.4922 3087.6953 912.9922 3081.25 920.4922 3081.25 926.5469 3081.25 930.2969 3083.9922 931.8438 3089.9922 L928.6953 3089.9922 C927.9453 3086.5469 924.9922 3083.9922 921.4453 3083.9922 915.2969 3083.9922 912.8438 3088.4922 912.7422 3093.8438 L932.1484 3093.8438 Z M912.8438 3096.5938 C913.2422 3100.9922 915.8438 3105.0938 920.7422 3105.0938 925.9453 3105.0938 928.5469 3101.4453 928.8984 3096.5938 L912.8438 3096.5938 Z" fill="#000000"/>
<path d="M956.2969 3095.1484 C956.2969 3089.4453 954.2969 3083.9922 947.7422 3083.9922 941.9922 3083.9922 940.5469 3090.3438 940.5469 3094.9922 940.5469 3099.7969 942.4922 3105.0938 948.1953 3105.0938 954.0469 3105.0938 956.2969 3100.2422 956.2969 3095.1484 L956.2969 3095.1484 Z M956.2969 3103.3984 956.2969 3103.2422 956.1953 3103.2422 956.1953 3103.3984 C954.4453 3106.2422 950.9453 3107.8438 947.5938 3107.8438 940.1484 3107.8438 937.2969 3101.1484 937.2969 3094.6484 937.2969 3088.3438 940.1484 3081.25 947.4453 3081.25 951.0938 3081.25 954.1484 3082.8984 956.1953 3085.8984 L956.2969 3085.8984 956.2969 3072.4453 959.2969 3072.4453 959.2969 3101.4453 C959.2969 3103.3984 959.4453 3105.3984 959.5469 3107.0938 L956.4453 3107.0938 956.2969 3103.3984 Z" fill="#000000"/>
<path d="M983.7969 3092.6484 C983.7969 3088.1484 981.5469 3083.9922 976.5938 3083.9922 972.4922 3083.9922 969.9922 3086.5469 969.9922 3090.8984 L969.9922 3107.0938 966.9922 3107.0938 966.9922 3091.3984 C966.9922 3088.4922 967.6484 3081.25 975.8438 3081.25 979.0938 3081.25 981.9453 3082.6953 983.6953 3085.7969 L983.7969 3085.6953 983.9453 3082 987.0469 3082 C986.9453 3083.6953 986.7969 3085.6953 986.7969 3087.6484 L986.7969 3107.0938 983.7969 3107.0938 983.7969 3092.6484 Z" fill="#000000"/>
<path d="M1016.1484 3093.8438 C1016.1484 3101.6953 1013.0938 3107.8438 1004.6953 3107.8438 997.2422 3107.8438 993.4922 3101.3438 993.4922 3094.5469 993.4922 3087.6953 996.9922 3081.25 1004.4922 3081.25 1010.5469 3081.25 1014.2969 3083.9922 1015.8438 3089.9922 L1012.6953 3089.9922 C1011.9453 3086.5469 1008.9922 3083.9922 1005.4453 3083.9922 999.2969 3083.9922 996.8438 3088.4922 996.7422 3093.8438 L1016.1484 3093.8438 Z M996.8438 3096.5938 C997.2422 3100.9922 999.8438 3105.0938 1004.7422 3105.0938 1009.9453 3105.0938 1012.5469 3101.4453 1012.8984 3096.5938 L996.8438 3096.5938 Z" fill="#000000"/>
<path d="M1025.9922 3096.4453 C1025.9922 3100.9453 1028.2422 3105.0938 1033.1953 3105.0938 1037.2969 3105.0938 1039.7969 3102.5469 1039.7969 3098.1953 L1039.7969 3082 1042.7969 3082 1042.7969 3097.6953 C1042.7969 3100.5938 1042.1484 3107.8438 1033.9453 3107.8438 1030.6953 3107.8438 1027.8438 3106.3984 1026.0938 3103.2969 L1025.9922 3103.3984 1025.8438 3107.0938 1022.7422 3107.0938 C1022.8438 3105.3984 1022.9922 3103.3984 1022.9922 3101.4453 L1022.9922 3082 1025.9922 3082 1025.9922 3096.4453 Z" fill="#000000"/>
<path d="M1069.0938 3099.3984 C1068.8438 3104.7422 1064.6484 3107.8438 1059.4922 3107.8438 1052.0469 3107.8438 1048.2969 3101.3438 1048.2969 3094.5469 1048.2969 3087.6953 1051.7969 3081.25 1059.2969 3081.25 1064.9922 3081.25 1068.2969 3084.0938 1069.0938 3089.8438 L1065.8438 3089.8438 C1065.5938 3086.3984 1062.8984 3083.9922 1058.9922 3083.9922 1054.3984 3083.9922 1051.5469 3088.8438 1051.5469 3094.5938 1051.5469 3100.2969 1054.3984 3105.0938 1058.9922 3105.0938 1063.1484 3105.0938 1065.5938 3103.2422 1065.8438 3099.3984 L1069.0938 3099.3984 Z" fill="#000000"/>
<path d="M1071.3984 3107.0938 1081.7969 3082 1077.9922 3072.3984 1081.2969 3072.3984 1095.1484 3107.0938 1091.8984 3107.0938 1083.4922 3086.0938 1075.0469 3107.0938 1071.3984 3107.0938 Z" fill="#000000"/>
<path d="M1131.2969 3095.0938 C1131.2969 3090.1953 1129.0938 3084.8438 1123.3438 3084.8438 1117.8438 3084.8438 1115.4922 3090.3984 1115.4922 3094.9922 1115.4922 3099.5938 1117.7969 3105.0938 1123.2422 3105.0938 1128.6484 3105.0938 1131.2969 3099.8984 1131.2969 3095.0938 L1131.2969 3095.0938 Z M1131.2969 3103.3984 1131.1953 3103.1953 C1129.1953 3106.0938 1126.5938 3107.8438 1122.9453 3107.8438 1115.2969 3107.8438 1112.2422 3101.5469 1112.2422 3094.7422 1112.2422 3087.8438 1115.4922 3082.0938 1123.0469 3082.0938 1126.2969 3082.0938 1129.7422 3083.8438 1131.1953 3086.7969 L1131.2969 3086.7969 1131.2969 3082.0938 C1131.1953 3077.8984 1127.5938 3075.1484 1123.6953 3075.1484 1120.4922 3075.1484 1116.9453 3076.1484 1116.5938 3079.1484 L1113.3438 3079.1484 C1113.3438 3073.9453 1118.7422 3072.3984 1123.2969 3072.3984 1125.6484 3072.3984 1126.9922 3072.5938 1128.9922 3073.5469 1134.5469 3076.1484 1134.2969 3081.3984 1134.2969 3086.3984 L1134.2969 3101.4453 C1134.2969 3103.3984 1134.4453 3105.3984 1134.5469 3107.0938 L1131.4453 3107.0938 1131.2969 3103.3984 Z" fill="#000000"/>
<path d="M1144.9922 3097.0938 C1145.0938 3101.8984 1147.4453 3105.0938 1151.8984 3105.0938 1152.4922 3105.0938 1153.1484 3104.9453 1153.7422 3104.8984 L1153.7422 3107.7969 C1152.7422 3107.8438 1151.7422 3107.8984 1150.7422 3107.8438 1148.2422 3107.7422 1145.9922 3105.9453 1145.0938 3103.3984 L1144.9922 3103.3984 1144.8438 3107.0938 1141.7422 3107.0938 C1141.8438 3105.3984 1142.0469 3103.3984 1141.9922 3101.4453 L1141.9922 3082 1144.9922 3082 1144.9922 3097.0938 Z" fill="#000000"/>
<path d="M1177.3438 3094.5469 C1177.3438 3089.8984 1174.9453 3083.9922 1168.8984 3083.9922 1162.8438 3083.9922 1160.4453 3089.8984 1160.4453 3094.5469 1160.4453 3099.1953 1162.8438 3105.0938 1168.8984 3105.0938 1174.9453 3105.0938 1177.3438 3099.1953 1177.3438 3094.5469 L1177.3438 3094.5469 Z M1168.8984 3107.8438 C1160.8984 3107.8438 1157.1953 3101.1484 1157.1953 3094.5469 1157.1953 3087.9453 1160.8984 3081.25 1168.8984 3081.25 1176.8984 3081.25 1180.5938 3087.9453 1180.5938 3094.5469 1180.5938 3101.1484 1176.8984 3107.8438 1168.8984 3107.8438 L1168.8984 3107.8438 Z" fill="#000000"/>
<path d="M1202.7969 3092.6484 C1202.7969 3088.1484 1200.5469 3083.9922 1195.5938 3083.9922 1191.4922 3083.9922 1188.9922 3086.5469 1188.9922 3090.8984 L1188.9922 3107.0938 1185.9922 3107.0938 1185.9922 3091.3984 C1185.9922 3088.4922 1186.6484 3081.25 1194.8438 3081.25 1198.0938 3081.25 1200.9453 3082.6953 1202.6953 3085.7969 L1202.7969 3085.6953 1202.9453 3082 1206.0469 3082 C1205.9453 3083.6953 1205.7969 3085.6953 1205.7969 3087.6484 L1205.7969 3107.0938 1202.7969 3107.0938 1202.7969 3092.6484 Z" fill="#000000"/>
<path d="M1216.4922 3095.1484 C1216.4922 3100.2422 1218.7422 3105.0938 1224.5938 3105.0938 1230.2969 3105.0938 1232.2422 3099.7969 1232.2422 3094.9922 1232.2422 3090.3438 1230.7969 3083.9922 1225.0469 3083.9922 1218.4922 3083.9922 1216.4922 3089.4453 1216.4922 3095.1484 L1216.4922 3095.1484 Z M1216.4922 3085.8984 1216.5938 3085.8984 C1218.6484 3082.8984 1221.6953 3081.25 1225.3438 3081.25 1232.6484 3081.25 1235.4922 3088.3438 1235.4922 3094.6484 1235.4922 3101.1484 1232.6484 3107.8438 1225.1953 3107.8438 1221.8438 3107.8438 1218.3438 3106.2422 1216.5938 3103.2969 L1216.4922 3103.3984 1216.3438 3107.0938 1213.2422 3107.0938 C1213.3438 3105.3984 1213.5469 3103.3984 1213.4922 3101.4453 L1213.4922 3072.3984 1216.4922 3072.3984 1216.4922 3085.8984 Z" fill="#000000"/>
</g>
<g>
<path d="M1277.8438 2097.0469 C1277.8438 2104.9453 1281.4453 2112.8438 1290.4453 2112.8438 1299.4453 2112.8438 1303.0469 2104.9453 1303.0469 2097.0469 1303.0469 2089.1484 1299.4453 2081.2422 1290.4453 2081.2422 1281.4453 2081.2422 1277.8438 2089.1484 1277.8438 2097.0469 L1277.8438 2097.0469 Z M1306.5469 2097.0469 C1306.5469 2108.2969 1300.7969 2115.8438 1290.4453 2115.8438 1280.0938 2115.8438 1274.3438 2108.2969 1274.3438 2097.0469 1274.3438 2085.7969 1280.0938 2078.25 1290.4453 2078.25 1300.7969 2078.25 1306.5469 2085.7969 1306.5469 2097.0469 L1306.5469 2097.0469 Z" fill="#ff0000"/>
<path d="M1316.4922 2092.1484 C1316.4922 2097.2422 1318.7422 2102.0938 1324.5938 2102.0938 1330.2969 2102.0938 1332.2422 2096.7969 1332.2422 2091.9922 1332.2422 2087.3438 1330.7969 2080.9922 1325.0469 2080.9922 1318.4922 2080.9922 1316.4922 2086.4453 1316.4922 2092.1484 L1316.4922 2092.1484 Z M1316.4922 2082.8984 1316.5938 2082.8984 C1318.6484 2079.8984 1321.6953 2078.25 1325.3438 2078.25 1332.6484 2078.25 1335.4922 2085.3438 1335.4922 2091.6484 1335.4922 2098.1484 1332.6484 2104.8438 1325.1953 2104.8438 1321.8438 2104.8438 1318.3438 2103.2422 1316.5938 2100.2969 L1316.4922 2100.3984 1316.3438 2104.0938 1313.2422 2104.0938 C1313.3438 2102.3984 1313.5469 2100.3984 1313.4922 2098.4453 L1313.4922 2069.3984 1316.4922 2069.3984 1316.4922 2082.8984 Z" fill="#ff0000"/>
<path d="M1344.1484 2085.6953 C1344.1484 2082.2969 1343.7969 2078.25 1350.1484 2078.25 1351.1484 2078.25 1352.2422 2078.4453 1353.1953 2078.6953 L1353.1953 2081.2969 C1352.3984 2081.0469 1351.4922 2080.9922 1350.5938 2080.9922 1348.2969 2080.9922 1347.0938 2082.2422 1347.1484 2084.5469 L1347.1484 2101.3438 1352.8438 2101.3438 1352.8438 2104.0938 1347.1484 2104.0938 1347.1484 2110.7422 1344.1484 2109.4453 1344.1484 2104.0938 1339.1484 2104.0938 1339.1484 2101.3438 1344.1484 2101.3438 1344.1484 2085.6953 Z" fill="#ff0000"/>
<path d="M1359.0469 2104.0938 1359.0469 2079 1362.0469 2079 1362.0469 2104.0938 1359.0469 2104.0938 Z M1362.2969 2115.0938 1358.7969 2115.0938 1358.7969 2111.3438 1362.2969 2111.3438 1362.2969 2115.0938 Z" fill="#ff0000"/>
<path d="M1388.3438 2091.5469 C1388.3438 2086.8984 1385.9453 2080.9922 1379.8984 2080.9922 1373.8438 2080.9922 1371.4453 2086.8984 1371.4453 2091.5469 1371.4453 2096.1953 1373.8438 2102.0938 1379.8984 2102.0938 1385.9453 2102.0938 1388.3438 2096.1953 1388.3438 2091.5469 L1388.3438 2091.5469 Z M1379.8984 2104.8438 C1371.8984 2104.8438 1368.1953 2098.1484 1368.1953 2091.5469 1368.1953 2084.9453 1371.8984 2078.25 1379.8984 2078.25 1387.8984 2078.25 1391.5938 2084.9453 1391.5938 2091.5469 1391.5938 2098.1484 1387.8984 2104.8438 1379.8984 2104.8438 L1379.8984 2104.8438 Z" fill="#ff0000"/>
<path d="M1400.9922 2093.4453 C1400.9922 2097.9453 1403.2422 2102.0938 1408.1953 2102.0938 1412.2969 2102.0938 1414.7969 2099.5469 1414.7969 2095.1953 L1414.7969 2079 1417.7969 2079 1417.7969 2094.6953 C1417.7969 2097.5938 1417.1484 2104.8438 1408.9453 2104.8438 1405.6953 2104.8438 1402.8438 2103.3984 1401.0938 2100.2969 L1400.9922 2100.3984 1400.8438 2104.0938 1397.7422 2104.0938 C1397.8438 2102.3984 1397.9922 2100.3984 1397.9922 2098.4453 L1397.9922 2079 1400.9922 2079 1400.9922 2093.4453 Z" fill="#ff0000"/>
<path d="M1427.0469 2085.9922 C1427.0469 2092.2969 1435.9453 2091.4922 1440.1953 2091.6484 1440.4922 2086.3984 1439.2422 2080.9922 1432.6953 2080.9922 1429.6484 2080.9922 1427.0469 2082.5938 1427.0469 2085.9922 L1427.0469 2085.9922 Z M1440.1953 2094.3984 C1436.5469 2094.1953 1432.1953 2094.6953 1428.8438 2093.2422 1425.8438 2091.9922 1423.7969 2089.3984 1423.7969 2085.9922 1423.7969 2081.0938 1427.4922 2078.25 1432.1484 2078.25 1435.5469 2078.25 1438.8984 2080.2422 1439.9922 2082.3438 L1440.1484 2082.6953 1440.2422 2082.6953 1440.3438 2079 1443.4453 2079 C1443.3438 2080.6953 1443.1484 2082.6953 1443.1953 2084.6484 L1443.1953 2096.5469 C1443.2969 2102.2969 1439.8438 2104.8438 1434.2969 2104.8438 1429.4922 2104.8438 1425.6484 2102.8984 1424.8984 2097.7422 L1428.0938 2097.7422 C1428.4922 2101.1484 1431.0938 2102.0938 1434.2422 2102.0938 1437.7969 2102.0938 1439.8984 2100.7969 1440.1953 2096.6953 L1440.1953 2094.3984 Z" fill="#ff0000"/>
<path d="M1454.0469 2115.0938 1451.0469 2115.0938 1451.0469 2079 1454.0469 2079 1454.0469 2115.0938 Z" fill="#ff0000"/>
<path d="M1508.0938 2096.3984 C1507.8438 2101.7422 1503.6484 2104.8438 1498.4922 2104.8438 1491.0469 2104.8438 1487.2969 2098.3438 1487.2969 2091.5469 1487.2969 2084.6953 1490.7969 2078.25 1498.2969 2078.25 1503.9922 2078.25 1507.2969 2081.0938 1508.0938 2086.8438 L1504.8438 2086.8438 C1504.5938 2083.3984 1501.8984 2080.9922 1497.9922 2080.9922 1493.3984 2080.9922 1490.5469 2085.8438 1490.5469 2091.5938 1490.5469 2097.2969 1493.3984 2102.0938 1497.9922 2102.0938 1502.1484 2102.0938 1504.5938 2100.2422 1504.8438 2096.3984 L1508.0938 2096.3984 Z" fill="#ff0000"/>
<path d="M1532.3438 2091.5469 C1532.3438 2086.8984 1529.9453 2080.9922 1523.8984 2080.9922 1517.8438 2080.9922 1515.4453 2086.8984 1515.4453 2091.5469 1515.4453 2096.1953 1517.8438 2102.0938 1523.8984 2102.0938 1529.9453 2102.0938 1532.3438 2096.1953 1532.3438 2091.5469 L1532.3438 2091.5469 Z M1523.8984 2104.8438 C1515.8984 2104.8438 1512.1953 2098.1484 1512.1953 2091.5469 1512.1953 2084.9453 1515.8984 2078.25 1523.8984 2078.25 1531.8984 2078.25 1535.5938 2084.9453 1535.5938 2091.5469 1535.5938 2098.1484 1531.8984 2104.8438 1523.8984 2104.8438 L1523.8984 2104.8438 Z" fill="#ff0000"/>
<path d="M1545.0469 2115.0938 1542.0469 2115.0938 1542.0469 2079 1545.0469 2079 1545.0469 2115.0938 Z" fill="#ff0000"/>
<path d="M1569.7969 2089.6484 C1569.7969 2085.1484 1567.5469 2080.9922 1562.5938 2080.9922 1558.4922 2080.9922 1555.9922 2083.5469 1555.9922 2087.8984 L1555.9922 2104.0938 1552.9922 2104.0938 1552.9922 2088.3984 C1552.9922 2085.4922 1553.6484 2078.25 1561.8438 2078.25 1565.0938 2078.25 1567.9453 2079.6953 1569.6953 2082.7969 L1569.7969 2082.6953 1569.9453 2079 1573.0469 2079 C1572.9453 2080.6953 1572.7969 2082.6953 1572.7969 2084.6484 L1572.7969 2104.0938 1569.7969 2104.0938 1569.7969 2089.6484 Z" fill="#ff0000"/>
<path d="M1583.7969 2104.0938 1580.6953 2104.0938 C1580.7969 2102.3984 1580.9453 2100.3984 1580.9453 2098.4453 L1580.9453 2079 1583.9453 2079 1583.9453 2093.4453 C1583.9453 2097.9453 1586.1953 2102.0938 1591.1484 2102.0938 1595.2422 2102.0938 1597.7422 2099.5469 1597.7422 2095.1953 L1597.7422 2079 1600.7422 2079 1600.7422 2093.4453 C1600.7422 2097.9453 1602.9922 2102.0938 1607.9453 2102.0938 1612.0469 2102.0938 1614.5469 2099.5469 1614.5469 2095.1953 L1614.5469 2079 1617.5469 2079 1617.5469 2094.6953 C1617.5469 2097.5938 1616.8984 2104.8438 1608.6953 2104.8438 1604.7969 2104.8438 1601.8984 2102.2969 1600.0469 2099.3438 1598.9453 2102.6484 1595.8438 2104.8438 1591.8984 2104.8438 1588.6484 2104.8438 1585.7969 2103.3984 1584.0469 2100.2969 L1583.9453 2100.3984 1583.7969 2104.0938 Z" fill="#ff0000"/>
<path d="M1628.9922 2093.4453 C1628.9922 2097.9453 1631.2422 2102.0938 1636.1953 2102.0938 1640.2969 2102.0938 1642.7969 2099.5469 1642.7969 2095.1953 L1642.7969 2079 1645.7969 2079 1645.7969 2094.6953 C1645.7969 2097.5938 1645.1484 2104.8438 1636.9453 2104.8438 1633.6953 2104.8438 1630.8438 2103.3984 1629.0938 2100.2969 L1628.9922 2100.3984 1628.8438 2104.0938 1625.7422 2104.0938 C1625.8438 2102.3984 1625.9922 2100.3984 1625.9922 2098.4453 L1625.9922 2079 1628.9922 2079 1628.9922 2093.4453 Z" fill="#ff0000"/>
</g>
<path d="M1098.3828 2117.0391 1098.3828 2072.75 1240.1094 2072.75 1240.1094 2117.0391" stroke="#ff0000" stroke-width="2.5" stroke-linejoin="miter" fill="none"/>
<path d="M1098.3828 2072.75 1240.1094 2072.75" stroke="#ff0000" stroke-width="10" stroke-linejoin="miter" fill="none"/>
</g>
</svg>
